<?xml version="1.0" encoding="utf-8"?>
<!-- Generator: Adobe Illustrator 22.0.1, SVG Export Plug-In . SVG Version: 6.00 Build 0)  -->
<svg version="1.1" id="Layer_1" xmlns="http://www.w3.org/2000/svg" xmlns:xlink="http://www.w3.org/1999/xlink" x="0px" y="0px"
	 viewBox="0 0 900 900" style="enable-background:new 0 0 900 900;" xml:space="preserve">
<style type="text/css">
	.st0{fill-rule:evenodd;clip-rule:evenodd;fill:#FFFFFF;}
	.st1{fill-rule:evenodd;clip-rule:evenodd;fill:#65B22E;}
	.st2{fill:#FFFFFF;}
	.st3{fill:#65B22E;}
</style>
<path d="M830.2,750.8c0,0-5.1-51.5-5.1-51.9c-0.6-16.8-8.2-38.1-24.1-49.4c-16-11.3-35.3-11.3-46.9-11.3h-37.6
	c-11.2,0-20.5-8.7-21.2-19.9l-6.9-111.6c-0.7-11.2-10-20-21.3-19.9c-12.7,0.1-26.6,0.2-48,0.3c1.9-3.9,3-8.3,3-13
	c0-10.2-5.1-19.3-12.8-24.4h34.3c18.1,0,35.2-5.5,48.2-15.4c14-10.6,22-25.8,22-41.4V97.5c0-15.7-8-30.8-22-41.4
	c-13-9.9-30.2-15.4-48.2-15.4H255.7c-18.1,0-35.2,5.5-48.2,15.4c-14,10.6-22,25.8-22,41.4v295.4c0,15.7,8,30.8,22,41.4
	c13,9.9,30.2,15.4,48.2,15.4h34.8c-7.7,5.2-12.8,14.2-12.8,24.4c0,5.4,1.4,10.5,3.9,14.8c-14.6,0.1-36.6,1.1-47.7,9.9
	c-17,13.5-20.2,32.5-21.1,47.4l-2.9,46.6c0,0.5-0.1,1.1-0.2,1.6c-0.9,6.4-1.2,13.5-0.5,20.6c1.2,12.4-8.6,23.1-21.1,23.1h-82.5
	c-10.9,0-20,8.3-21.1,19.1L71,793.4c-1.4,13.7,10.5,25.1,24.2,23.1c15.9-2.3,31.9-4.5,48-6.5c-0.3,1.5-0.4,3-0.4,4.5v20.4
	c0,14,11.3,25.3,25.4,25.3h558.8c14,0,25.4-11.3,25.4-25.3v-20.4c0-0.9-0.1-1.8-0.1-2.7c24.9,2.6,48.6,1.3,63.4-11.5
	C833.6,784.7,831.6,764.3,830.2,750.8z"/>
<g id="Rectángulo_redondeado_2_copia_5_">
	<path class="st0" d="M643.6,54.8H255.7c-31,0-56.1,19.1-56.1,42.7v295.3c0,23.6,25.1,42.7,56.1,42.7h387.9
		c31,0,56.1-19.1,56.1-42.7V97.5C699.6,73.9,674.5,54.8,643.6,54.8z M656,390.6c0,6-6.5,10.9-14.6,10.9c0,0-95.8,8.4-192.2,8.4
		c-97.4,0-195.4-8.4-195.4-8.4c-8,0-14.6-4.9-14.6-10.9c0,0-5.6-71.4-5.6-143.3c0-73.2,5.6-146.9,5.6-146.9c0-6,6.5-10.9,14.6-10.9
		c0,0,96.4-8.4,193-8.4c97.2,0,194.6,8.4,194.6,8.4c8,0,14.6,4.9,14.6,10.9c0,0,9.6,73,9.6,145.7C665.6,318.4,656,390.6,656,390.6z
		 M594.4,459.3h-289c-7.5,0-13.5,6.6-13.5,14.8c0,8.2,6.1,14.8,13.5,14.8h289c7.5,0,13.5-6.6,13.5-14.8
		C607.9,465.9,601.9,459.3,594.4,459.3z"/>
</g>
<path class="st1" d="M438.2,220.4l0,11.8c0,4.5-2.7,8.8-7.4,11.5l-123.5,73.1c-3.5,2.1-8.6,0.2-8.6-3.3l0-8.9c0-5.5,3.3-10.7,8.9-14
	l96.6-57.1c6.3-3.7,6.4-11,0.2-14.8l-97-59.3c-5.5-3.3-8.7-8.4-8.7-13.8l0-8.9c0-3.4,5.2-5.4,8.7-3.2L431,209
	C435.5,211.7,438.2,215.9,438.2,220.4z"/>
<path class="st1" d="M458.7,365.8h129c2.8,0,5-2.2,5-5v-8.1c0-2.8-2.2-5-5-5h-129c-2.8,0-5,2.2-5,5v8.1
	C453.7,363.6,455.9,365.8,458.7,365.8z"/>
<path class="st1" d="M438.2,220.4l0,11.8c0,4.5-2.7,8.8-7.4,11.5l-123.5,73.1c-3.5,2.1-8.6,0.2-8.6-3.3l0-8.9c0-5.5,3.3-10.7,8.9-14
	l96.6-57.1c6.3-3.7,6.4-11,0.2-14.8l-97-59.3c-5.5-3.3-8.7-8.4-8.7-13.8l0-8.9c0-3.4,5.2-5.4,8.7-3.2L431,209
	C435.5,211.7,438.2,215.9,438.2,220.4z"/>
<path class="st1" d="M458.7,365.8h129c2.8,0,5-2.2,5-5v-8.1c0-2.8-2.2-5-5-5h-129c-2.8,0-5,2.2-5,5v8.1
	C453.7,363.6,455.9,365.8,458.7,365.8z"/>
<g>
	<g>
		<path class="st2" d="M287.2,548.5c0.3-5.7,1.8-15.4-7.2-15.4c-9,0-8.3,9.7-8.6,15.4c-0.9,17.9-1.8,35.8-2.7,53.7
			c-0.3,5.7-1.9,15.4,7.3,15.4c9.2,0,8.5-9.7,8.7-15.4c0.3-6.3,0.4-9.4,0.7-15.7c14,0,28,0,42,0c-0.5,15.5-1,30.9-1.6,46.4
			c-13.1,10.6-31.9,14-48.2,14.8c-14.3,0.6-31.8-1.8-43-11.5c-11.3-10.1-10.3-27.5-9.2-41c1-16.1,2-32.2,3-48.3
			c0.4-12.3,3.8-25.3,13.7-33.1c11.8-9.2,27-10.8,41-10.5c15.6,0.2,33.2,5.6,46.6,15.1c-0.4,12.9-0.9,25.7-1.3,38.6
			c-13.9,0-27.8,0-41.6,0C286.9,553.5,287,551.9,287.2,548.5z"/>
		<path class="st2" d="M440.5,604.7c1.3,32.5-25.2,42.7-52.9,43c-28.8,0.3-52.3-11-51.5-43c0.6-19.5,1.2-39,1.8-58.6
			c1.1-31,23.3-43.3,52.1-43c27.4,0.3,52,11.4,50.6,43C440.6,565.6,440.5,585.2,440.5,604.7z M379.8,606.8c0,1-0.7,10.9,8.3,10.9
			c9,0,8.7-9.9,8.7-10.9c0.3-21,0.6-42,0.9-62.9c0-1,0.6-10.7-8.2-10.7c-8.8,0-8.5,9.7-8.5,10.7
			C380.6,564.8,380.2,585.8,379.8,606.8z"/>
		<path class="st2" d="M497.4,606.6c0.1,5.2-0.4,10.4,4.9,13.6c0.1,9.9,0.2,14.8,0.4,24.7c-17.9,0-35.8,0-53.7,0
			c0-9.9,0-14.8,0-24.7c5.3-3.2,4.8-8.4,4.7-13.6c0-20.8,0-41.6-0.1-62.5c0-5.2,0.5-10.4-4.7-13.6c0-9.9,0-14.8,0-24.7
			c19.7,0,39.4,0,59,0c11.2-0.2,23.3-0.1,33.1,5.5c10.9,6.2,15.4,19.3,15.9,31.2c0.7,13.9-5.1,28.6-19.8,32.6c0,0.1,0,0.2,0,0.3
			c12.4,2.7,18.8,10.5,18.8,23.2c0.1,3.2,0.1,4.8,0.2,8c0.1,4.7,0.3,11.5,5.8,13.6c0.3,9.9,0.5,14.8,0.8,24.7c-15.8,0-31.6,0-47.5,0
			c-3.3-12.2-3-24.9-3.1-37.3c-0.1-11-1.4-16.5-13.3-16.9c-0.7,0-1.1,0-1.8,0C497.3,597.1,497.3,600.3,497.4,606.6z M496.9,563
			c1.7,0,2.6,0,4.4,0c9.4,0,12.2-4.9,12-14.6c-0.2-8.9-3.1-13.8-12.4-13.8c-1.7,0-2.6,0-4.3,0C496.6,544.1,496.7,553.5,496.9,563z"
			/>
		<path class="st2" d="M673.8,594.6c1,16.8,2.1,33.5,3.1,50.3c-35.4,0-70.8,0-106.2,0c-0.3-9.9-0.5-14.8-0.8-24.7
			c5.2-3.2,4.5-8.4,4.3-13.6c-0.7-20.8-1.4-41.6-2.1-62.5c-0.2-5.2,0.1-10.4-5.1-13.6c-0.3-9.9-0.5-14.8-0.8-24.7
			c34.1,0,68.1,0,102.2,0c1,15.7,1.9,31.4,2.9,47c-13.2,0-26.4,0-39.7,0c-0.1-1.7-0.1-2.5-0.2-4.2c-0.5-9.4-2-13.3-13.5-13.3
			c-1,0-1.5,0-2.6,0c0.5,9.9,0.7,14.9,1.1,24.8c10.9,0,16.4,0,27.3,0c0.6,10.8,0.9,16.3,1.5,27.1c-11,0-16.5,0-27.5,0
			c0.4,9.4,0.9,18.7,1.3,28.1c1.1,0,1.6,0,2.6,0c13.1,0,12.7-4.9,12.3-16.2c-0.1-1.8-0.1-2.7-0.2-4.5
			C647,594.6,660.4,594.6,673.8,594.6z"/>
	</g>
</g>
<g>
	<g>
		<path class="st2" d="M160.3,657.4c11.6-0.3,24.6,0.2,34.1,7.1c9.7,7,11.1,19.8,9.7,31.2c-1.3,15.6-2.5,31.1-3.8,46.7
			c-0.5,12.2-4.4,23.6-13.8,31.7c-10.2,8.7-23.5,12.2-36.7,13.6c-20.8,2.7-41.5,5.7-62.2,8.8c1-9.9,1.5-14.8,2.5-24.7
			c5.1-2.7,6-7,6.6-11.7c2.2-22.4,4.5-44.8,6.7-67.2c0.3-4.8,0.4-8.8-4.3-10.8c1-9.9,1.5-14.8,2.5-24.7
			C121,657.4,140.6,657.4,160.3,657.4z M139.6,761.4c1.4-0.1,2.1-0.2,3.4-0.4c9.5-1,12.7-4.5,13.6-13.9c1.5-16.3,2.9-32.6,4.4-48.9
			c0.8-9.4-1.8-12.5-11-12.2c-1.3,0-2,0.1-3.4,0.1C144.3,711.2,141.9,736.3,139.6,761.4z"/>
		<path class="st2" d="M273.2,657.4c16.4,0,32.9,0,49.3,0c-0.4,8.1-0.6,12.2-1,20.4c-5.9,2.7-5.6,7-5.8,11.3
			c-0.8,15.5-1.5,31.1-2.3,46.6c-0.4,12.4-4.6,23.9-15,31.3c-11,7.8-25,10.3-38.1,11.4c-12.2,1-26.2,1.3-36.9-5.7
			c-10.5-6.9-12.1-19.7-11-31.4c1.3-16.6,2.6-33.3,3.9-49.9c0.4-4.6,1.2-9.2-3.7-12c0.7-8.8,1-13.2,1.7-22c17.2,0,34.5,0,51.7,0
			c-0.6,8.4-0.8,12.6-1.4,21.1c-5.3,2.9-5.1,7.3-5.4,11.8c-1.2,18.1-2.4,36.3-3.6,54.4c-0.2,2.4,0.1,8.4,8.1,7.9
			c8-0.5,9.1-6.6,9.2-8.9c1.1-17.9,2.2-35.8,3.3-53.8c0.1-4.4,0.9-8.8-4.4-11.5C272.4,670,272.6,665.8,273.2,657.4z"/>
		<path class="st2" d="M397.1,703.1c0.1,0,0.2,0,0.3,0c5.1-15.2,10.2-30.5,15.2-45.7c17.4,0,34.8,0,52.2,0c0,7.9,0.1,11.8,0.1,19.7
			c-5.1,2.6-4.6,6.7-4.6,10.9c0.1,16.6,0.1,33.3,0.2,49.9c0,4.1-0.5,8.3,4.8,10.9c0,7.9,0.1,11.8,0.1,19.7
			c-17.3-0.1-34.6,0-51.9,0.2c0.1-7.9,0.2-11.8,0.3-19.7c5.3-2.7,4.9-6.8,4.9-11c0.1-10,0.2-19.9,0.3-29.9c-0.1,0-0.2,0-0.3,0
			c-6.6,20.3-13.2,40.6-20,60.8c-5.6,0.1-8.4,0.2-13.9,0.3c-6.2-20.2-12.3-40.3-18.3-60.6c-0.1,0-0.2,0-0.3,0
			c-0.3,10.1-0.6,20.1-0.9,30.2c-0.1,4.2-0.8,8.4,4.4,10.9c-0.2,8-0.4,12-0.6,19.9c-14.6,0.5-29.2,1.2-43.8,1.9
			c0.4-8.1,0.5-12.2,0.9-20.3c5.4-2.9,5.1-7.1,5.3-11.4c0.7-17.1,1.5-34.2,2.2-51.3c0.2-4.3,0.8-8.5-4.2-11.1
			c0.4-8.1,0.5-12.2,0.9-20.3c17.9,0,35.7,0,53.6,0C388.2,672.6,392.6,687.9,397.1,703.1z"/>
		<path class="st2" d="M479.7,688c0-4.2,0.4-8.3-4.8-10.9c-0.1-7.9-0.1-11.8-0.2-19.7c18.5,0,37,0,55.5,0c12.4-0.2,25.8-0.2,37,6
			c11,6.3,15.1,19.6,14.9,31.4c0.2,3.7,0.3,5.5,0.4,9.1c1.4,27.1-18.8,34.6-43,33.9c-6.2-0.2-9.3-0.3-15.6-0.4
			c0.2,5.5-0.2,9.7,5.1,12.4c0.2,8,0.4,12,0.6,19.9c-18-0.6-35.9-1-53.9-1.2c-0.1-7.9-0.1-11.8-0.2-19.7c5.2-2.5,4.7-6.7,4.6-10.9
			C480.1,721.3,479.9,704.7,479.7,688z M523.4,713.7c1.6,0,2.4,0,4.1,0.1c12.8,0.2,12.1-5.7,11.8-16.2c-0.4-10.7-0.1-16.6-12.7-16.7
			c-1.6,0-2.4,0-4,0C522.8,691.8,523.1,702.7,523.4,713.7z"/>
		<path class="st2" d="M693,736.5c1.2,15,2.4,29.9,3.6,44.9c-35.4-3.6-70.7-6.5-106.2-8.8c-0.4-8.2-0.6-12.3-1-20.4
			c5.1-2.4,4.4-6.8,4.2-11.1c-0.9-17.3-1.8-34.6-2.7-51.9c-0.2-4.3,0-8.6-5.2-11.4c-0.4-8.2-0.6-12.3-1-20.4c34,0,68.1,0,102.1,0
			c1.1,14,2.2,28,3.3,42c-13.2-0.5-26.4-0.9-39.6-1.3c-0.1-1.5-0.2-2.2-0.3-3.6c-0.6-8.1-2.1-11.5-13.6-11.7c-1,0-1.5,0-2.6,0
			c0.6,8.5,0.8,12.7,1.4,21.2c10.9,0.4,16.4,0.5,27.3,1c0.7,9.4,1,14.2,1.7,23.6c-11-0.6-16.5-0.9-27.5-1.4c0.6,9.6,0.9,14.4,1.6,24
			c1.1,0.1,1.6,0.1,2.6,0.2c13.1,0.9,12.7-3.3,12.1-13.1c-0.1-1.6-0.2-2.4-0.3-3.9C666.3,734.8,679.7,735.6,693,736.5z"/>
		<path class="st2" d="M750.9,657.4c12.2-0.3,25.4,0.5,35.4,7.7c11.1,7.9,14.8,21.8,15.8,35c1.7,17.4,3.5,34.7,5.2,52.1
			c1.6,11.4,1.6,24.5-7.9,32.5c-9.6,8-23.3,6.9-34.9,5c-20.8-2.7-41.5-5.3-62.3-7.6c-0.7-8.8-1.1-13.3-1.8-22.1
			c4.8-1.5,4.9-5.2,4.8-9.4c-1.7-20.3-3.3-40.6-5-60.9c-0.5-4.4-1.1-8.1-6.3-10c-0.7-8.8-1.1-13.3-1.8-22.1
			C711.7,657.4,731.3,657.4,750.9,657.4z M749.4,760.3c1.4,0.1,2.1,0.2,3.4,0.4c9.5,1,12.1-1.9,11.2-11.5c-1.6-16.7-3.1-33.3-4.7-50
			c-0.9-9.6-4.1-12.9-13.4-13.2c-1.3,0-2-0.1-3.4-0.1C744.8,710.7,747.1,735.5,749.4,760.3z"/>
	</g>
</g>
<g>
	<path class="st3" d="M195.1,817.5v-5.2l24.1,10.3v4l-24.1,10.3v-5.2l17.7-6.7l1.6-0.5l-1.6-0.5L195.1,817.5z"/>
	<path class="st3" d="M232.2,817.1c1.1-1.5,2.4-2.8,3.9-3.6c1.5-0.9,3.3-1.3,5.2-1.3c1.5,0,3,0.2,4.2,0.7c1.3,0.4,2.3,1.1,3.2,2.1
		c0.9,0.9,1.6,2.1,2.1,3.6s0.7,3.2,0.7,5.1v18.6h-5.1v-18.6c0-2.4-0.6-4.2-1.7-5.4c-1.2-1.2-2.8-1.8-5-1.7c-1.6,0-3.1,0.4-4.4,1.2
		c-1.3,0.8-2.4,1.8-3.2,3.2v21.5h-5.1v-41.9h5.1V817.1z"/>
	<path class="st3" d="M278.7,842.3c-0.2-0.4-0.4-0.9-0.5-1.4s-0.2-1.2-0.3-1.8c-0.5,0.5-1.1,1-1.7,1.4s-1.3,0.9-2.1,1.2
		c-0.8,0.3-1.6,0.6-2.4,0.8c-0.9,0.2-1.8,0.3-2.7,0.3c-1.6,0-3-0.2-4.2-0.7c-1.3-0.5-2.3-1.1-3.2-1.8c-0.9-0.8-1.6-1.7-2-2.8
		c-0.5-1.1-0.7-2.2-0.7-3.5c0-1.6,0.3-3,1-4.3c0.6-1.2,1.6-2.2,2.7-3c1.2-0.8,2.6-1.4,4.3-1.8c1.7-0.4,3.5-0.6,5.6-0.6h5.5V822
		c0-0.9-0.2-1.7-0.5-2.4c-0.3-0.7-0.8-1.3-1.4-1.8c-0.6-0.5-1.3-0.9-2.2-1.2c-0.9-0.3-1.8-0.4-2.9-0.4c-1,0-1.9,0.1-2.7,0.4
		c-0.8,0.3-1.5,0.6-2,1c-0.5,0.4-1,0.9-1.3,1.5c-0.3,0.6-0.5,1.2-0.5,1.8h-5.1c0-1.1,0.3-2.1,0.8-3.2c0.5-1,1.3-2,2.3-2.8
		c1-0.8,2.2-1.5,3.7-2c1.4-0.5,3.1-0.8,4.9-0.8c1.7,0,3.2,0.2,4.7,0.6c1.4,0.4,2.7,1,3.7,1.9c1,0.8,1.9,1.9,2.5,3.1
		c0.6,1.2,0.9,2.7,0.9,4.3v13.7c0,1,0.1,2,0.3,3.1c0.2,1.1,0.4,2.1,0.8,2.9v0.4H278.7z M269.8,838.4c1,0,1.9-0.1,2.8-0.4
		s1.6-0.6,2.3-1c0.7-0.4,1.3-0.9,1.8-1.4c0.5-0.5,0.9-1.1,1.2-1.7v-6h-4.7c-2.9,0-5.2,0.4-6.9,1.3c-1.6,0.9-2.5,2.2-2.5,4.1
		c0,0.7,0.1,1.4,0.4,2c0.2,0.6,0.6,1.2,1.1,1.6s1.1,0.8,1.9,1.1S268.8,838.4,269.8,838.4z"/>
	<path class="st3" d="M304,838.7c0.9,0,1.8-0.1,2.7-0.4s1.6-0.7,2.3-1.2c0.7-0.5,1.2-1.1,1.6-1.8c0.4-0.7,0.6-1.5,0.6-2.3h4.8
		c0,1.3-0.4,2.6-1,3.8c-0.7,1.2-1.6,2.2-2.7,3.1c-1.1,0.9-2.4,1.6-3.8,2.2c-1.4,0.5-2.9,0.8-4.5,0.8c-2.2,0-4.2-0.4-5.9-1.2
		s-3.1-1.9-4.2-3.2c-1.1-1.4-2-2.9-2.5-4.7s-0.8-3.6-0.8-5.6v-1.1c0-1.9,0.3-3.8,0.8-5.6c0.6-1.8,1.4-3.4,2.5-4.7
		c1.1-1.4,2.5-2.4,4.2-3.2s3.6-1.2,5.9-1.2c1.7,0,3.4,0.3,4.8,0.8c1.5,0.6,2.7,1.3,3.8,2.3c1.1,1,1.9,2.1,2.5,3.4s0.9,2.7,0.9,4.2
		h-4.8c0-0.9-0.2-1.7-0.6-2.5c-0.4-0.8-0.9-1.5-1.5-2.1c-0.6-0.6-1.4-1.1-2.3-1.4s-1.8-0.5-2.9-0.5c-1.6,0-2.9,0.3-3.9,0.9
		s-1.9,1.4-2.6,2.5s-1.1,2.1-1.4,3.4c-0.3,1.3-0.4,2.5-0.4,3.8v1.1c0,1.3,0.1,2.6,0.4,3.8c0.3,1.3,0.7,2.4,1.4,3.4
		c0.6,1,1.5,1.8,2.6,2.5S302.4,838.7,304,838.7z"/>
	<path class="st3" d="M332.4,828.5l-3.7,3.6v10.2h-5.1v-41.9h5.1V826l3.3-3.5l9.7-9.7h6.1l-12,12.3l13.8,17.2h-6.4L332.4,828.5z"/>
	<path class="st3" d="M375.2,842.3c-0.2-0.4-0.4-0.9-0.5-1.4s-0.2-1.2-0.3-1.8c-0.5,0.5-1.1,1-1.7,1.4s-1.3,0.9-2.1,1.2
		c-0.8,0.3-1.6,0.6-2.4,0.8c-0.9,0.2-1.8,0.3-2.7,0.3c-1.6,0-3-0.2-4.2-0.7c-1.3-0.5-2.3-1.1-3.2-1.8c-0.9-0.8-1.6-1.7-2-2.8
		c-0.5-1.1-0.7-2.2-0.7-3.5c0-1.6,0.3-3,1-4.3c0.6-1.2,1.6-2.2,2.7-3c1.2-0.8,2.6-1.4,4.3-1.8c1.7-0.4,3.5-0.6,5.6-0.6h5.5V822
		c0-0.9-0.2-1.7-0.5-2.4c-0.3-0.7-0.8-1.3-1.4-1.8c-0.6-0.5-1.3-0.9-2.2-1.2c-0.9-0.3-1.8-0.4-2.9-0.4c-1,0-1.9,0.1-2.7,0.4
		c-0.8,0.3-1.5,0.6-2,1c-0.5,0.4-1,0.9-1.3,1.5c-0.3,0.6-0.5,1.2-0.5,1.8h-5.1c0-1.1,0.3-2.1,0.8-3.2c0.5-1,1.3-2,2.3-2.8
		c1-0.8,2.2-1.5,3.7-2c1.4-0.5,3.1-0.8,4.9-0.8c1.7,0,3.2,0.2,4.7,0.6c1.4,0.4,2.7,1,3.7,1.9c1,0.8,1.9,1.9,2.5,3.1
		c0.6,1.2,0.9,2.7,0.9,4.3v13.7c0,1,0.1,2,0.3,3.1c0.2,1.1,0.4,2.1,0.8,2.9v0.4H375.2z M366.2,838.4c1,0,1.9-0.1,2.8-0.4
		s1.6-0.6,2.3-1c0.7-0.4,1.3-0.9,1.8-1.4c0.5-0.5,0.9-1.1,1.2-1.7v-6h-4.7c-2.9,0-5.2,0.4-6.9,1.3c-1.6,0.9-2.5,2.2-2.5,4.1
		c0,0.7,0.1,1.4,0.4,2c0.2,0.6,0.6,1.2,1.1,1.6s1.1,0.8,1.9,1.1S365.3,838.4,366.2,838.4z"/>
	<path class="st3" d="M399.9,805.6v7.2h11.2v3.9h-11.2v16.1c0,1.1,0.1,2.1,0.4,2.8c0.3,0.7,0.7,1.3,1.2,1.8c0.5,0.4,1.1,0.8,1.8,0.9
		c0.7,0.2,1.4,0.3,2.1,0.3c0.5,0,1.1,0,1.7-0.1c0.6-0.1,1.2-0.1,1.7-0.2c0.6-0.1,1.1-0.2,1.6-0.3c0.5-0.1,0.9-0.2,1.2-0.3l0.7,3.6
		c-0.4,0.3-0.9,0.5-1.5,0.7c-0.6,0.2-1.3,0.4-2,0.5s-1.5,0.2-2.3,0.3c-0.8,0.1-1.6,0.1-2.4,0.1c-1.3,0-2.5-0.2-3.7-0.6
		c-1.1-0.4-2.1-1-3-1.8s-1.5-1.9-2-3.1c-0.5-1.3-0.7-2.8-0.7-4.7v-16.1H387v-3.9h7.8v-7.2H399.9z"/>
	<path class="st3" d="M425.1,817.1c1.1-1.5,2.4-2.8,3.9-3.6c1.5-0.9,3.3-1.3,5.2-1.3c1.5,0,3,0.2,4.2,0.7c1.3,0.4,2.3,1.1,3.2,2.1
		c0.9,0.9,1.6,2.1,2.1,3.6s0.7,3.2,0.7,5.1v18.6h-5.1v-18.6c0-2.4-0.6-4.2-1.7-5.4c-1.2-1.2-2.8-1.8-5-1.7c-1.6,0-3.1,0.4-4.4,1.2
		c-1.3,0.8-2.4,1.8-3.2,3.2v21.5h-5.1v-41.9h5.1V817.1z"/>
	<path class="st3" d="M450.8,827.2c0-2.1,0.3-4.1,0.9-5.9c0.6-1.8,1.5-3.4,2.7-4.8c1.2-1.3,2.6-2.4,4.2-3.2c1.7-0.8,3.5-1.2,5.6-1.2
		c2.1,0,4,0.4,5.6,1.2s3.1,1.8,4.2,3.2c1.2,1.3,2,2.9,2.7,4.8c0.6,1.8,0.9,3.8,0.9,5.9v0.6c0,2.1-0.3,4.1-0.9,5.9
		c-0.6,1.8-1.5,3.4-2.7,4.8c-1.2,1.3-2.6,2.4-4.2,3.2s-3.5,1.1-5.6,1.1c-2.1,0-4-0.4-5.6-1.1c-1.7-0.8-3.1-1.8-4.2-3.2
		c-1.2-1.3-2-2.9-2.7-4.8c-0.6-1.8-0.9-3.8-0.9-5.9V827.2z M455.8,827.8c0,1.5,0.2,2.8,0.5,4.2s0.9,2.5,1.6,3.5
		c0.7,1,1.6,1.8,2.6,2.4c1.1,0.6,2.3,0.9,3.7,0.9c1.4,0,2.6-0.3,3.6-0.9c1-0.6,1.9-1.4,2.6-2.4c0.7-1,1.2-2.2,1.6-3.5
		c0.3-1.3,0.5-2.7,0.5-4.2v-0.6c0-1.4-0.2-2.8-0.5-4.1c-0.4-1.3-0.9-2.5-1.6-3.5c-0.7-1-1.6-1.8-2.6-2.4c-1-0.6-2.3-0.9-3.7-0.9
		s-2.6,0.3-3.7,0.9c-1,0.6-1.9,1.4-2.6,2.4c-0.7,1-1.2,2.2-1.6,3.5s-0.5,2.7-0.5,4.1V827.8z"/>
	<path class="st3" d="M488.9,812.7l0.4,4.4c1.1-1.5,2.4-2.7,4-3.6c1.6-0.9,3.3-1.3,5.2-1.3c1.5,0,3,0.2,4.2,0.7
		c1.3,0.4,2.3,1.1,3.2,2c0.9,0.9,1.6,2.1,2.1,3.5s0.7,3.1,0.7,5.1v18.8h-5.1v-18.6c0-1.3-0.1-2.4-0.4-3.3s-0.7-1.6-1.3-2.2
		s-1.3-1-2.1-1.2s-1.8-0.4-2.9-0.4c-1.7,0-3.2,0.4-4.5,1.3c-1.3,0.8-2.3,2-3.1,3.3v21.2h-5.1v-29.5H488.9z"/>
	<path class="st3" d="M560.6,805.6v7.2h11.2v3.9h-11.2v16.1c0,1.1,0.1,2.1,0.4,2.8c0.3,0.7,0.7,1.3,1.2,1.8c0.5,0.4,1.1,0.8,1.8,0.9
		c0.7,0.2,1.4,0.3,2.1,0.3c0.5,0,1.1,0,1.7-0.1c0.6-0.1,1.2-0.1,1.7-0.2c0.6-0.1,1.1-0.2,1.6-0.3c0.5-0.1,0.9-0.2,1.2-0.3l0.7,3.6
		c-0.4,0.3-0.9,0.5-1.5,0.7c-0.6,0.2-1.3,0.4-2,0.5s-1.5,0.2-2.3,0.3c-0.8,0.1-1.6,0.1-2.4,0.1c-1.3,0-2.5-0.2-3.7-0.6
		c-1.1-0.4-2.1-1-3-1.8s-1.5-1.9-2-3.1c-0.5-1.3-0.7-2.8-0.7-4.7v-16.1h-7.8v-3.9h7.8v-7.2H560.6z"/>
	<path class="st3" d="M593.9,842.8c-2.1,0-4-0.4-5.7-1.1s-3.2-1.7-4.5-3c-1.2-1.3-2.2-2.8-2.9-4.5s-1-3.6-1-5.7v-1.1
		c0-2.4,0.4-4.5,1.1-6.4s1.8-3.5,3-4.8c1.3-1.3,2.7-2.3,4.3-3s3.3-1,5-1c2.1,0,4,0.4,5.6,1.1c1.6,0.7,2.9,1.8,4,3.1
		c1.1,1.3,1.8,2.8,2.4,4.6c0.5,1.8,0.8,3.7,0.8,5.7v2.3h-21.1c0.1,1.3,0.3,2.6,0.8,3.8c0.5,1.2,1.1,2.2,1.9,3.1s1.8,1.6,2.9,2.1
		c1.1,0.5,2.4,0.8,3.7,0.8c1.8,0,3.4-0.4,4.8-1.1c1.4-0.7,2.6-1.7,3.5-2.9l3.1,2.4c-0.5,0.7-1.1,1.5-1.8,2.1
		c-0.7,0.7-1.6,1.3-2.6,1.8c-1,0.5-2.1,1-3.3,1.3S595.3,842.8,593.9,842.8z M593.2,816.3c-1,0-2,0.2-2.9,0.6
		c-0.9,0.4-1.7,0.9-2.5,1.6c-0.7,0.7-1.3,1.6-1.8,2.6c-0.5,1-0.9,2.3-1.1,3.6h15.9v-0.4c-0.1-1-0.2-2-0.6-2.9
		c-0.3-1-0.8-1.8-1.4-2.6c-0.6-0.8-1.4-1.4-2.3-1.9C595.6,816.6,594.5,816.3,593.2,816.3z"/>
	<path class="st3" d="M632.4,842.3c-0.2-0.4-0.4-0.9-0.5-1.4s-0.2-1.2-0.3-1.8c-0.5,0.5-1.1,1-1.7,1.4s-1.3,0.9-2.1,1.2
		c-0.8,0.3-1.6,0.6-2.4,0.8c-0.9,0.2-1.8,0.3-2.7,0.3c-1.6,0-3-0.2-4.2-0.7c-1.3-0.5-2.3-1.1-3.2-1.8c-0.9-0.8-1.6-1.7-2-2.8
		c-0.5-1.1-0.7-2.2-0.7-3.5c0-1.6,0.3-3,1-4.3c0.6-1.2,1.6-2.2,2.7-3c1.2-0.8,2.6-1.4,4.3-1.8c1.7-0.4,3.5-0.6,5.6-0.6h5.5V822
		c0-0.9-0.2-1.7-0.5-2.4c-0.3-0.7-0.8-1.3-1.4-1.8c-0.6-0.5-1.3-0.9-2.2-1.2c-0.9-0.3-1.8-0.4-2.9-0.4c-1,0-1.9,0.1-2.7,0.4
		c-0.8,0.3-1.5,0.6-2,1c-0.5,0.4-1,0.9-1.3,1.5c-0.3,0.6-0.5,1.2-0.5,1.8h-5.1c0-1.1,0.3-2.1,0.8-3.2c0.5-1,1.3-2,2.3-2.8
		c1-0.8,2.2-1.5,3.7-2c1.4-0.5,3.1-0.8,4.9-0.8c1.7,0,3.2,0.2,4.7,0.6c1.4,0.4,2.7,1,3.7,1.9c1,0.8,1.9,1.9,2.5,3.1
		c0.6,1.2,0.9,2.7,0.9,4.3v13.7c0,1,0.1,2,0.3,3.1c0.2,1.1,0.4,2.1,0.8,2.9v0.4H632.4z M623.5,838.4c1,0,1.9-0.1,2.8-0.4
		s1.6-0.6,2.3-1c0.7-0.4,1.3-0.9,1.8-1.4c0.5-0.5,0.9-1.1,1.2-1.7v-6h-4.7c-2.9,0-5.2,0.4-6.9,1.3c-1.6,0.9-2.5,2.2-2.5,4.1
		c0,0.7,0.1,1.4,0.4,2c0.2,0.6,0.6,1.2,1.1,1.6s1.1,0.8,1.9,1.1S622.5,838.4,623.5,838.4z"/>
	<path class="st3" d="M647.5,812.7l0.1,2.8c0.6-1,1.4-1.8,2.4-2.4c1-0.6,2.2-0.9,3.5-0.9c2.7,0,4.5,1.1,5.4,3.2
		c0.6-0.9,1.4-1.7,2.3-2.3c1-0.6,2.1-0.9,3.5-0.9c2.2,0,3.8,0.7,5,2c1.2,1.3,1.7,3.3,1.7,6v22.1h-4.8v-22.1c0-2.5-1.1-3.7-3.4-3.7
		c-0.6,0-1.1,0.1-1.6,0.2s-0.8,0.4-1.1,0.7c-0.3,0.3-0.5,0.6-0.7,1c-0.2,0.4-0.3,0.8-0.3,1.2v22.7h-4.8v-22.1c0-1.2-0.3-2.1-0.8-2.7
		c-0.5-0.6-1.4-0.9-2.5-0.9c-1.1,0-1.9,0.2-2.5,0.6c-0.6,0.4-1,1-1.3,1.7v23.5h-4.8v-29.5H647.5z"/>
	<path class="st3" d="M701.8,846.4h-25v-4.1h25V846.4z"/>
</g>
<g id="Rectángulo_redondeado_2_copia_4_">
	<path class="st0" d="M643.6,54.8H255.7c-31,0-56.1,19.1-56.1,42.7v295.3c0,23.6,25.1,42.7,56.1,42.7h387.9
		c31,0,56.1-19.1,56.1-42.7V97.5C699.6,73.9,674.5,54.8,643.6,54.8z M656,390.6c0,6-6.5,10.9-14.6,10.9c0,0-95.8,8.4-192.2,8.4
		c-97.4,0-195.4-8.4-195.4-8.4c-8,0-14.6-4.9-14.6-10.9c0,0-5.6-71.4-5.6-143.3c0-73.2,5.6-146.9,5.6-146.9c0-6,6.5-10.9,14.6-10.9
		c0,0,96.4-8.4,193-8.4c97.2,0,194.6,8.4,194.6,8.4c8,0,14.6,4.9,14.6,10.9c0,0,9.6,73,9.6,145.7C665.6,318.4,656,390.6,656,390.6z
		 M594.4,459.3h-289c-7.5,0-13.5,6.6-13.5,14.8c0,8.2,6.1,14.8,13.5,14.8h289c7.5,0,13.5-6.6,13.5-14.8
		C607.9,465.9,601.9,459.3,594.4,459.3z"/>
</g>
<g>
</g>
<g>
</g>
<g>
</g>
<g>
</g>
<g>
</g>
<g>
</g>
<g>
</g>
<g>
</g>
<g>
</g>
<g>
</g>
<g>
</g>
<g>
</g>
<g>
</g>
<g>
</g>
<g>
</g>
</svg>
